<svg aria-hidden="true" style="position: absolute; width: 0; height: 0; overflow: hidden;" version="1.1" xmlns="http://www.w3.org/2000/svg" xmlns:xlink="http://www.w3.org/1999/xlink">
<defs>
<symbol id="icon-Group-41" viewBox="0 0 73 32">
<path fill="#fff" style="fill: var(--color1, #fff)" d="M37.197 15.533h-3.242l-1.692 7.78h3.492c2.512 0 3.258-1.383 3.267-2.475 0.008-0.951-0.532-1.34-1.042-1.507l0.017-0.086c0.715-0.157 1.582-0.74 1.591-1.94 0.009-1.156-0.885-1.772-2.392-1.772zM34.566 21.724l0.343-1.545h1.379c0.527 0 0.839 0.216 0.836 0.665-0.004 0.465-0.358 0.881-1.104 0.881h-1.453zM35.251 18.591l0.321-1.47h1.272c0.527 0 0.818 0.2 0.815 0.627-0.004 0.443-0.337 0.843-1.098 0.843h-1.309z"></path>
<path fill="#fff" style="fill: var(--color1, #fff)" d="M40.6 15.533l-1.692 7.78h5.574l0.37-1.686h-3.551l1.321-6.094h-2.023z"></path>
<path fill="#fff" style="fill: var(--color1, #fff)" d="M48.416 15.533l-3.814 7.618-0.033 0.162h1.922l0.748-1.621h2.273l0.045 1.621h1.842l0.033-0.162-0.503-7.618h-2.512zM47.996 20.060l1.311-2.837h0.085l0.073 2.837h-1.469z"></path>
<path fill="#fff" style="fill: var(--color1, #fff)" d="M55.257 15.533h-2.188l-1.692 7.78h2.693c3.391 0 4.502-2.529 4.52-4.69 0.016-2.005-1.3-3.090-3.334-3.090zM53.728 21.67l0.968-4.495h0.484c0.937 0 1.47 0.519 1.462 1.507-0.012 1.443-0.737 2.988-2.292 2.988h-0.623z"></path>
<path fill="#fff" style="fill: var(--color1, #fff)" d="M59.714 15.533l-1.692 7.78h5.802l0.343-1.588h-3.822l0.337-1.534h3.215l0.343-1.588h-3.21l0.321-1.48h3.747l0.343-1.588h-5.728z"></path>
<path fill="#fff" style="fill: var(--color1, #fff)" d="M40.317 6.528l-0.359 1.664h2.204l-1.332 6.116h2.001l1.332-6.116h2.204l0.359-1.664h-6.409z"></path>
<path fill="#fff" style="fill: var(--color1, #fff)" d="M50.118 6.528h-3.146l-1.692 7.78h1.959l0.663-3.058h0.106l1.577 3.058h1.985l0.033-0.162-1.589-2.885c1.939-0.162 2.656-1.28 2.667-2.637 0.011-1.34-0.978-2.096-2.565-2.096zM48.212 9.823l0.376-1.707h1.251c0.607 0 0.951 0.243 0.947 0.719-0.004 0.497-0.359 0.989-1.243 0.989h-1.331z"></path>
<path fill="#fff" style="fill: var(--color1, #fff)" d="M55.043 6.528l-3.814 7.618-0.033 0.162h1.921l0.748-1.621h2.273l0.045 1.621h1.842l0.033-0.162-0.503-7.618h-2.512zM54.623 11.055l1.311-2.836h0.085l0.073 2.837h-1.469z"></path>
<path fill="#fff" style="fill: var(--color1, #fff)" d="M61.884 6.528h-2.187l-1.692 7.78h2.693c3.391 0 4.502-2.529 4.52-4.69 0.016-2.005-1.3-3.090-3.334-3.090zM60.355 12.665l0.968-4.495h0.484c0.937 0 1.47 0.519 1.462 1.507-0.012 1.443-0.737 2.988-2.291 2.988h-0.623z"></path>
<path fill="#fff" style="fill: var(--color1, #fff)" d="M66.342 6.528l-1.692 7.78h5.802l0.343-1.588h-3.822l0.337-1.534h3.215l0.343-1.588h-3.21l0.321-1.48h3.748l0.343-1.588h-5.727z"></path>
<path fill="#57e1ff" style="fill: var(--color2, #57e1ff)" d="M20.946 18.794l4.765-8.253h-9.53l4.765 8.253z"></path>
<path fill="#5e47ff" style="fill: var(--color3, #5e47ff)" d="M18.823 23.334l-12.669-21.871 6.293 5.050 8.044 13.933-1.668 2.889z"></path>
<path fill="#5e47ff" style="fill: var(--color3, #5e47ff)" d="M30.716 10.092l-12.607 21.908 1.227-7.975 8.044-13.933h3.336z"></path>
<path fill="#5e47ff" style="fill: var(--color3, #5e47ff)" d="M13.376 6.552l25.276-0.036-7.52 2.925h-16.088l-1.668-2.889z"></path>
</symbol>
<symbol id="icon-Vector-970" viewBox="0 0 5472 32">
<path fill="none" opacity="0.2" stroke="#fff" style="stroke: var(--color1, #fff)" stroke-linejoin="miter" stroke-linecap="butt" stroke-miterlimit="4" stroke-width="16" d="M8 16h10200"></path>
</symbol>
<symbol id="icon-Vector-15-1" viewBox="0 0 50 32">
<path fill="none" stroke="#fff" style="stroke: var(--color1, #fff)" stroke-linejoin="round" stroke-linecap="round" stroke-miterlimit="4" stroke-width="4.9778" d="M3.556 5.333l21.333 21.333 21.333-21.333"></path>
</symbol>
<symbol id="icon-Vector-5" viewBox="0 0 35 32">
<path fill="none" stroke="#fff" style="stroke: var(--color1, #fff)" stroke-linejoin="round" stroke-linecap="round" stroke-miterlimit="4" stroke-width="4.48" d="M3.2 17.8l11.879 11.879 16.8-25.2"></path>
</symbol>
<symbol id="icon-Vector-15" viewBox="0 0 20 32">
<path fill="none" stroke="#35ff9e" style="stroke: var(--color4, #35ff9e)" stroke-linejoin="miter" stroke-linecap="butt" stroke-miterlimit="4" stroke-width="3.5556" d="M10.159 3.556l7.619 8M10.159 3.556l-8.381 8M10.159 3.556v28.444"></path>
</symbol>
<symbol id="icon-Frame-18" viewBox="0 0 32 32">
<path fill="#fff" style="fill: var(--color1, #fff)" d="M8.74 8.74c0.364-0.364 0.955-0.364 1.32 0l13.199 13.199c0.364 0.364 0.364 0.955 0 1.32s-0.955 0.364-1.32 0l-13.199-13.199c-0.364-0.365-0.364-0.956 0-1.32z"></path>
<path fill="#fff" style="fill: var(--color1, #fff)" d="M8.74 23.26c-0.364-0.364-0.364-0.955 0-1.32l13.199-13.199c0.364-0.364 0.955-0.364 1.32 0s0.364 0.955 0 1.32l-13.199 13.199c-0.364 0.364-0.955 0.364-1.32 0z"></path>
</symbol>
<symbol id="icon-Group-21046" viewBox="0 0 48 32">
<path fill="#e7f7f8" style="fill: var(--color5, #e7f7f8)" d="M0.8 2.666c0-1.031 0.836-1.867 1.867-1.867h42.667c1.031 0 1.867 0.836 1.867 1.867s-0.836 1.867-1.867 1.867h-42.667c-1.031 0-1.867-0.836-1.867-1.867z"></path>
<path fill="#e7f7f8" style="fill: var(--color5, #e7f7f8)" d="M0.8 16c0-1.031 0.836-1.867 1.867-1.867h42.667c1.031 0 1.867 0.836 1.867 1.867s-0.836 1.867-1.867 1.867h-42.667c-1.031 0-1.867-0.836-1.867-1.867z"></path>
<path fill="#e7f7f8" style="fill: var(--color5, #e7f7f8)" d="M0.8 29.333c0-1.031 0.836-1.867 1.867-1.867h42.667c1.031 0 1.867 0.836 1.867 1.867s-0.836 1.867-1.867 1.867h-42.667c-1.031 0-1.867-0.836-1.867-1.867z"></path>
</symbol>
<symbol id="icon-Group-36" viewBox="0 0 75 32">
<path fill="#fff" style="fill: var(--color1, #fff)" d="M9.652 17.418h-6.020l-3.142 14.449h6.485c4.666 0 6.051-2.569 6.067-4.596 0.014-1.766-0.988-2.488-1.935-2.8l0.031-0.16c1.327-0.291 2.937-1.375 2.955-3.602 0.017-2.147-1.644-3.291-4.442-3.291zM4.765 28.917l0.636-2.87h2.56c0.979 0 1.559 0.401 1.552 1.234-0.007 0.863-0.666 1.635-2.050 1.635h-2.699zM6.038 23.097l0.595-2.729h2.363c0.979 0 1.519 0.371 1.513 1.164-0.007 0.823-0.626 1.565-2.039 1.565h-2.432z"></path>
<path fill="#fff" style="fill: var(--color1, #fff)" d="M15.972 17.418l-3.142 14.449h10.352l0.688-3.131h-6.596l2.454-11.318h-3.756z"></path>
<path fill="#fff" style="fill: var(--color1, #fff)" d="M30.487 17.418l-7.083 14.148-0.062 0.301h3.569l1.388-3.010h4.221l0.084 3.010h3.42l0.062-0.301-0.934-14.148h-4.666zM29.707 25.826l2.435-5.268h0.158l0.135 5.268h-2.728z"></path>
<path fill="#fff" style="fill: var(--color1, #fff)" d="M43.192 17.418h-4.063l-3.142 14.449h5.002c6.297 0 8.361-4.696 8.394-8.709 0.030-3.723-2.415-5.739-6.191-5.739zM40.352 28.816l1.797-8.348h0.9c1.74 0 2.73 0.963 2.716 2.8-0.022 2.679-1.37 5.549-4.256 5.549h-1.157z"></path>
<path fill="#fff" style="fill: var(--color1, #fff)" d="M51.469 17.418l-3.142 14.449h10.775l0.637-2.95h-7.098l0.626-2.85h5.971l0.637-2.95h-5.961l0.596-2.749h6.959l0.637-2.95h-10.637z"></path>
<path fill="#fff" style="fill: var(--color1, #fff)" d="M15.446 0.694l-0.667 3.090h4.092l-2.474 11.358h3.717l2.474-11.358h4.093l0.667-3.090h-11.902z"></path>
<path fill="#fff" style="fill: var(--color1, #fff)" d="M33.647 0.694h-5.842l-3.142 14.449h3.638l1.232-5.679h0.198l2.93 5.679h3.687l0.062-0.301-2.952-5.358c3.601-0.301 4.932-2.378 4.952-4.897 0.020-2.488-1.817-3.893-4.763-3.893zM30.108 6.815l0.698-3.171h2.323c1.127 0 1.766 0.452 1.759 1.335-0.007 0.923-0.667 1.836-2.308 1.836h-2.471z"></path>
<path fill="#fff" style="fill: var(--color1, #fff)" d="M42.794 0.694l-7.083 14.148-0.062 0.301h3.568l1.389-3.010h4.221l0.084 3.010h3.42l0.062-0.301-0.934-14.148h-4.666zM42.015 9.103l2.435-5.268h0.158l0.135 5.268h-2.728z"></path>
<path fill="#fff" style="fill: var(--color1, #fff)" d="M55.5 0.694h-4.063l-3.142 14.449h5.002c6.297 0 8.361-4.696 8.394-8.71 0.030-3.723-2.415-5.739-6.191-5.739zM52.66 12.093l1.797-8.348h0.9c1.74 0 2.73 0.963 2.716 2.799-0.022 2.679-1.369 5.549-4.256 5.549h-1.157z"></path>
<path fill="#fff" style="fill: var(--color1, #fff)" d="M63.777 0.694l-3.142 14.449h10.775l0.637-2.95h-7.098l0.626-2.85h5.971l0.637-2.95h-5.961l0.596-2.749h6.959l0.637-2.95h-10.636z"></path>
</symbol>
<symbol id="icon-Group-35" viewBox="0 0 33 32">
<path fill="#57e1ff" style="fill: var(--color2, #57e1ff)" d="M16.694 18.53l3.177-5.502h-6.353l3.177 5.502z"></path>
<path fill="#5e47ff" style="fill: var(--color3, #5e47ff)" d="M15.28 21.556l-8.446-14.581 4.195 3.367 5.363 9.288-1.112 1.926z"></path>
<path fill="#5e47ff" style="fill: var(--color3, #5e47ff)" d="M23.208 12.728l-8.404 14.605 0.818-5.317 5.363-9.288h2.224z"></path>
<path fill="#5e47ff" style="fill: var(--color3, #5e47ff)" d="M11.648 10.368l16.851-0.024-5.013 1.95h-10.725l-1.112-1.926z"></path>
</symbol>
<symbol id="icon-Frame-21067" viewBox="0 0 66 32">
<path fill="#fff" style="fill: var(--color1, #fff)" d="M31.043 15.533h-3.242l-1.692 7.78h3.492c2.512 0 3.258-1.383 3.267-2.475 0.008-0.951-0.532-1.34-1.042-1.507l0.017-0.086c0.714-0.157 1.582-0.74 1.591-1.94 0.009-1.156-0.885-1.772-2.392-1.772zM28.412 21.725l0.343-1.545h1.379c0.527 0 0.839 0.216 0.836 0.665-0.004 0.465-0.358 0.881-1.104 0.881h-1.453zM29.097 18.591l0.321-1.47h1.272c0.527 0 0.818 0.2 0.815 0.627-0.004 0.443-0.337 0.843-1.098 0.843h-1.309z"></path>
<path fill="#fff" style="fill: var(--color1, #fff)" d="M34.446 15.533l-1.692 7.78h5.574l0.37-1.686h-3.551l1.321-6.094h-2.023z"></path>
<path fill="#fff" style="fill: var(--color1, #fff)" d="M42.262 15.533l-3.814 7.618-0.033 0.162h1.922l0.748-1.621h2.273l0.045 1.621h1.842l0.033-0.162-0.503-7.618h-2.512zM41.842 20.060l1.311-2.837h0.085l0.073 2.837h-1.469z"></path>
<path fill="#fff" style="fill: var(--color1, #fff)" d="M49.103 15.533h-2.188l-1.692 7.78h2.693c3.391 0 4.502-2.529 4.52-4.69 0.016-2.005-1.3-3.090-3.334-3.090zM47.574 21.671l0.968-4.495h0.484c0.937 0 1.47 0.519 1.462 1.507-0.012 1.443-0.738 2.988-2.292 2.988h-0.623z"></path>
<path fill="#fff" style="fill: var(--color1, #fff)" d="M53.56 15.533l-1.691 7.78h5.802l0.343-1.588h-3.822l0.337-1.534h3.215l0.343-1.588h-3.21l0.321-1.48h3.747l0.343-1.588h-5.727z"></path>
<path fill="#fff" style="fill: var(--color1, #fff)" d="M34.163 6.528l-0.359 1.664h2.204l-1.332 6.116h2.001l1.332-6.116h2.204l0.359-1.664h-6.409z"></path>
<path fill="#fff" style="fill: var(--color1, #fff)" d="M43.964 6.528h-3.146l-1.692 7.78h1.959l0.663-3.058h0.106l1.577 3.058h1.985l0.033-0.162-1.59-2.885c1.939-0.162 2.656-1.28 2.667-2.637 0.011-1.34-0.978-2.096-2.565-2.096zM42.058 9.823l0.376-1.707h1.251c0.607 0 0.951 0.243 0.947 0.719-0.004 0.497-0.359 0.989-1.243 0.989h-1.331z"></path>
<path fill="#fff" style="fill: var(--color1, #fff)" d="M48.889 6.528l-3.814 7.618-0.033 0.162h1.922l0.748-1.621h2.273l0.045 1.621h1.842l0.033-0.162-0.502-7.618h-2.513zM48.469 11.055l1.311-2.836h0.085l0.073 2.837h-1.469z"></path>
<path fill="#fff" style="fill: var(--color1, #fff)" d="M55.73 6.528h-2.188l-1.692 7.78h2.694c3.391 0 4.502-2.529 4.52-4.69 0.017-2.005-1.3-3.090-3.334-3.090zM54.201 12.665l0.968-4.495h0.484c0.937 0 1.47 0.519 1.462 1.507-0.011 1.443-0.737 2.988-2.291 2.988h-0.623z"></path>
<path fill="#fff" style="fill: var(--color1, #fff)" d="M60.188 6.528l-1.692 7.78h5.802l0.343-1.588h-3.822l0.337-1.534h3.215l0.343-1.588h-3.209l0.321-1.48h3.748l0.343-1.588h-5.727z"></path>
<path fill="#57e1ff" style="fill: var(--color2, #57e1ff)" d="M14.791 18.795l4.765-8.253h-9.53l4.765 8.253z"></path>
<path fill="#5e47ff" style="fill: var(--color3, #5e47ff)" d="M12.669 23.334l-12.669-21.871 6.293 5.050 8.044 13.933-1.668 2.889z"></path>
<path fill="#5e47ff" style="fill: var(--color3, #5e47ff)" d="M24.562 10.092l-12.607 21.908 1.227-7.975 8.044-13.933h3.336z"></path>
<path fill="#5e47ff" style="fill: var(--color3, #5e47ff)" d="M7.222 6.552l25.276-0.036-7.52 2.925h-16.088l-1.668-2.889z"></path>
</symbol>
</defs>
</svg>
